<mxfile host="Electron" agent="Mozilla/5.0 (Windows NT 10.0; Win64; x64) AppleWebKit/537.36 (KHTML, like Gecko) draw.io/24.7.17 Chrome/128.0.6613.36 Electron/32.0.1 Safari/537.36" version="24.7.17">
  <diagram name="Page-1" id="13e1069c-82ec-6db2-03f1-153e76fe0fe0">
    <mxGraphModel dx="1276" dy="606" grid="1" gridSize="10" guides="1" tooltips="1" connect="1" arrows="1" fold="1" page="1" pageScale="1" pageWidth="1100" pageHeight="850" background="none" math="0" shadow="0">
      <root>
        <mxCell id="0" />
        <mxCell id="1" parent="0" />
        <mxCell id="6pZB10yQk9abNV-G5xyR-55" value="&lt;span style=&quot;font-family: &amp;quot;trebuchet ms&amp;quot;, verdana, arial, sans-serif; font-size: 16px; text-align: start; background-color: rgb(255, 255, 255);&quot;&gt;Merchant&lt;/span&gt;" style="shape=umlActor;verticalLabelPosition=bottom;verticalAlign=top;html=1;" vertex="1" parent="1">
          <mxGeometry x="181" y="130" width="30" height="60" as="geometry" />
        </mxCell>
        <mxCell id="6pZB10yQk9abNV-G5xyR-56" value="" style="endArrow=none;dashed=1;html=1;dashPattern=1 3;strokeWidth=2;rounded=0;" edge="1" parent="1" source="6pZB10yQk9abNV-G5xyR-111" target="6pZB10yQk9abNV-G5xyR-55">
          <mxGeometry width="50" height="50" relative="1" as="geometry">
            <mxPoint x="196" y="1510" as="sourcePoint" />
            <mxPoint x="601" y="620" as="targetPoint" />
          </mxGeometry>
        </mxCell>
        <mxCell id="6pZB10yQk9abNV-G5xyR-57" value="" style="shape=umlLifeline;perimeter=lifelinePerimeter;whiteSpace=wrap;html=1;container=1;dropTarget=0;collapsible=0;recursiveResize=0;outlineConnect=0;portConstraint=eastwest;newEdgeStyle={&quot;curved&quot;:0,&quot;rounded&quot;:0};participant=umlBoundary;" vertex="1" parent="1">
          <mxGeometry x="370" y="145" width="50" height="1355" as="geometry" />
        </mxCell>
        <mxCell id="6pZB10yQk9abNV-G5xyR-112" value="" style="html=1;points=[[0,0,0,0,5],[0,1,0,0,-5],[1,0,0,0,5],[1,1,0,0,-5]];perimeter=orthogonalPerimeter;outlineConnect=0;targetShapes=umlLifeline;portConstraint=eastwest;newEdgeStyle={&quot;curved&quot;:0,&quot;rounded&quot;:0};" vertex="1" parent="6pZB10yQk9abNV-G5xyR-57">
          <mxGeometry x="20" y="78" width="10" height="492" as="geometry" />
        </mxCell>
        <mxCell id="6pZB10yQk9abNV-G5xyR-58" value="" style="shape=umlLifeline;perimeter=lifelinePerimeter;whiteSpace=wrap;html=1;container=1;dropTarget=0;collapsible=0;recursiveResize=0;outlineConnect=0;portConstraint=eastwest;newEdgeStyle={&quot;curved&quot;:0,&quot;rounded&quot;:0};participant=umlControl;" vertex="1" parent="1">
          <mxGeometry x="663" y="140" width="40" height="1360" as="geometry" />
        </mxCell>
        <mxCell id="6pZB10yQk9abNV-G5xyR-59" value="" style="shape=umlLifeline;perimeter=lifelinePerimeter;whiteSpace=wrap;html=1;container=1;dropTarget=0;collapsible=0;recursiveResize=0;outlineConnect=0;portConstraint=eastwest;newEdgeStyle={&quot;curved&quot;:0,&quot;rounded&quot;:0};participant=umlEntity;" vertex="1" parent="1">
          <mxGeometry x="892" y="145" width="40" height="1345" as="geometry" />
        </mxCell>
        <mxCell id="6pZB10yQk9abNV-G5xyR-107" value="" style="html=1;points=[[0,0,0,0,5],[0,1,0,0,-5],[1,0,0,0,5],[1,1,0,0,-5]];perimeter=orthogonalPerimeter;outlineConnect=0;targetShapes=umlLifeline;portConstraint=eastwest;newEdgeStyle={&quot;curved&quot;:0,&quot;rounded&quot;:0};" vertex="1" parent="6pZB10yQk9abNV-G5xyR-59">
          <mxGeometry x="16" y="1130" width="10" height="120" as="geometry" />
        </mxCell>
        <mxCell id="6pZB10yQk9abNV-G5xyR-60" value="&lt;span style=&quot;font-family: &amp;quot;trebuchet ms&amp;quot;, verdana, arial, sans-serif; font-size: 16px; text-align: start; text-wrap: nowrap; background-color: rgb(255, 255, 255);&quot;&gt;MenuInterface&lt;/span&gt;" style="text;html=1;align=center;verticalAlign=middle;whiteSpace=wrap;rounded=0;" vertex="1" parent="1">
          <mxGeometry x="365" y="188" width="60" height="30" as="geometry" />
        </mxCell>
        <mxCell id="6pZB10yQk9abNV-G5xyR-62" value="&#xa;&lt;span style=&quot;color: rgb(0, 0, 0); font-family: &amp;quot;trebuchet ms&amp;quot;, verdana, arial, sans-serif; font-size: 16px; font-style: normal; font-variant-ligatures: normal; font-variant-caps: normal; font-weight: 400; letter-spacing: normal; orphans: 2; text-align: start; text-indent: 0px; text-transform: none; widows: 2; word-spacing: 0px; -webkit-text-stroke-width: 0px; white-space: nowrap; background-color: rgb(255, 255, 255); text-decoration-thickness: initial; text-decoration-style: initial; text-decoration-color: initial; display: inline !important; float: none;&quot;&gt;BackendAPI&lt;/span&gt;&#xa;&#xa;" style="text;html=1;align=center;verticalAlign=middle;whiteSpace=wrap;rounded=0;" vertex="1" parent="1">
          <mxGeometry x="663" y="192" width="60" height="30" as="geometry" />
        </mxCell>
        <mxCell id="6pZB10yQk9abNV-G5xyR-63" value="&lt;span style=&quot;font-family: &amp;quot;trebuchet ms&amp;quot;, verdana, arial, sans-serif; font-size: 16px; text-align: start; text-wrap: nowrap; background-color: rgb(255, 255, 255);&quot;&gt;Database&lt;/span&gt;" style="text;html=1;align=center;verticalAlign=middle;whiteSpace=wrap;rounded=0;" vertex="1" parent="1">
          <mxGeometry x="883" y="181" width="60" height="30" as="geometry" />
        </mxCell>
        <mxCell id="6pZB10yQk9abNV-G5xyR-69" value="" style="endArrow=block;endFill=1;html=1;edgeStyle=orthogonalEdgeStyle;align=left;verticalAlign=top;rounded=0;entryX=0;entryY=0.077;entryDx=0;entryDy=0;entryPerimeter=0;exitX=1.2;exitY=0.056;exitDx=0;exitDy=0;exitPerimeter=0;" edge="1" parent="1">
          <mxGeometry x="-1" relative="1" as="geometry">
            <mxPoint x="210" y="260.87199999999996" as="sourcePoint" />
            <mxPoint x="384" y="260.58399999999995" as="targetPoint" />
          </mxGeometry>
        </mxCell>
        <mxCell id="6pZB10yQk9abNV-G5xyR-70" value="&amp;nbsp; &amp;nbsp; &lt;span style=&quot;font-family: &amp;quot;trebuchet ms&amp;quot;, verdana, arial, sans-serif; font-size: 16px;&quot;&gt;Load Menu Page&lt;/span&gt;" style="edgeLabel;resizable=0;html=1;align=left;verticalAlign=bottom;" connectable="0" vertex="1" parent="6pZB10yQk9abNV-G5xyR-69">
          <mxGeometry x="-1" relative="1" as="geometry">
            <mxPoint x="9" as="offset" />
          </mxGeometry>
        </mxCell>
        <mxCell id="6pZB10yQk9abNV-G5xyR-72" value="" style="rounded=0;whiteSpace=wrap;html=1;" vertex="1" parent="1">
          <mxGeometry x="680" y="223" width="10" height="577" as="geometry" />
        </mxCell>
        <mxCell id="6pZB10yQk9abNV-G5xyR-73" value="&lt;span style=&quot;font-family: &amp;quot;trebuchet ms&amp;quot;, verdana, arial, sans-serif; font-size: 16px; text-align: start;&quot;&gt;GET /api/Merchant/dishSearch&lt;/span&gt;" style="html=1;verticalAlign=bottom;endArrow=block;curved=0;rounded=0;" edge="1" parent="1">
          <mxGeometry x="-0.0179" y="10" width="80" relative="1" as="geometry">
            <mxPoint x="404" y="280.00341463414634" as="sourcePoint" />
            <mxPoint x="690" y="280" as="targetPoint" />
            <mxPoint as="offset" />
          </mxGeometry>
        </mxCell>
        <mxCell id="6pZB10yQk9abNV-G5xyR-75" value="" style="rounded=0;whiteSpace=wrap;html=1;" vertex="1" parent="1">
          <mxGeometry x="908.5" y="240" width="9" height="150" as="geometry" />
        </mxCell>
        <mxCell id="6pZB10yQk9abNV-G5xyR-76" value="&lt;span style=&quot;font-family: &amp;quot;trebuchet ms&amp;quot;, verdana, arial, sans-serif; font-size: 16px; text-align: start;&quot;&gt;Query Dishes by MerchantId&lt;/span&gt;" style="html=1;verticalAlign=bottom;endArrow=block;curved=0;rounded=0;" edge="1" parent="1" target="6pZB10yQk9abNV-G5xyR-59">
          <mxGeometry width="80" relative="1" as="geometry">
            <mxPoint x="700" y="300" as="sourcePoint" />
            <mxPoint x="780" y="300" as="targetPoint" />
          </mxGeometry>
        </mxCell>
        <mxCell id="6pZB10yQk9abNV-G5xyR-78" value="&lt;span style=&quot;font-family: &amp;quot;trebuchet ms&amp;quot;, verdana, arial, sans-serif; font-size: 16px; text-align: start;&quot;&gt;Return Dishes&lt;/span&gt;" style="html=1;verticalAlign=bottom;endArrow=open;dashed=1;endSize=8;curved=0;rounded=0;entryX=1;entryY=0.25;entryDx=0;entryDy=0;" edge="1" parent="1" source="6pZB10yQk9abNV-G5xyR-59" target="6pZB10yQk9abNV-G5xyR-72">
          <mxGeometry relative="1" as="geometry">
            <mxPoint x="650" y="370" as="sourcePoint" />
            <mxPoint x="720" y="370" as="targetPoint" />
          </mxGeometry>
        </mxCell>
        <mxCell id="6pZB10yQk9abNV-G5xyR-79" value="&lt;span style=&quot;font-family: &amp;quot;trebuchet ms&amp;quot;, verdana, arial, sans-serif; font-size: 16px; text-align: start;&quot;&gt;Return Dish List&lt;/span&gt;" style="html=1;verticalAlign=bottom;endArrow=open;dashed=1;endSize=8;curved=0;rounded=0;" edge="1" parent="1" target="6pZB10yQk9abNV-G5xyR-57">
          <mxGeometry relative="1" as="geometry">
            <mxPoint x="690" y="410" as="sourcePoint" />
            <mxPoint x="610" y="410" as="targetPoint" />
          </mxGeometry>
        </mxCell>
        <mxCell id="6pZB10yQk9abNV-G5xyR-80" value="&lt;span style=&quot;font-family: &amp;quot;trebuchet ms&amp;quot;, verdana, arial, sans-serif; font-size: 16px; text-align: start;&quot;&gt;Display Dishes&lt;/span&gt;" style="html=1;verticalAlign=bottom;endArrow=open;dashed=1;endSize=8;curved=0;rounded=0;entryX=0.9;entryY=0.347;entryDx=0;entryDy=0;entryPerimeter=0;" edge="1" parent="1">
          <mxGeometry relative="1" as="geometry">
            <mxPoint x="380" y="430" as="sourcePoint" />
            <mxPoint x="204" y="431.6890000000001" as="targetPoint" />
          </mxGeometry>
        </mxCell>
        <mxCell id="6pZB10yQk9abNV-G5xyR-81" value="&lt;span style=&quot;font-family: &amp;quot;trebuchet ms&amp;quot;, verdana, arial, sans-serif; font-size: 16px; text-align: start;&quot;&gt;Search for Dishes&lt;/span&gt;" style="html=1;verticalAlign=bottom;endArrow=block;curved=0;rounded=0;exitX=1.2;exitY=0.451;exitDx=0;exitDy=0;exitPerimeter=0;" edge="1" parent="1" target="6pZB10yQk9abNV-G5xyR-57">
          <mxGeometry width="80" relative="1" as="geometry">
            <mxPoint x="210" y="492.7370000000001" as="sourcePoint" />
            <mxPoint x="320" y="490" as="targetPoint" />
          </mxGeometry>
        </mxCell>
        <mxCell id="6pZB10yQk9abNV-G5xyR-82" value="&lt;span style=&quot;font-family: &amp;quot;trebuchet ms&amp;quot;, verdana, arial, sans-serif; font-size: 16px; text-align: start;&quot;&gt;Filter Dishes by Query&lt;/span&gt;" style="html=1;verticalAlign=bottom;endArrow=block;curved=0;rounded=0;entryX=0;entryY=0.5;entryDx=0;entryDy=0;" edge="1" parent="1" target="6pZB10yQk9abNV-G5xyR-72">
          <mxGeometry width="80" relative="1" as="geometry">
            <mxPoint x="400" y="510" as="sourcePoint" />
            <mxPoint x="480" y="510" as="targetPoint" />
          </mxGeometry>
        </mxCell>
        <mxCell id="6pZB10yQk9abNV-G5xyR-83" value="&lt;span style=&quot;font-family: &amp;quot;trebuchet ms&amp;quot;, verdana, arial, sans-serif; font-size: 16px; text-align: start;&quot;&gt;Return Filtered Dishes&lt;/span&gt;" style="html=1;verticalAlign=bottom;endArrow=open;dashed=1;endSize=8;curved=0;rounded=0;" edge="1" parent="1">
          <mxGeometry relative="1" as="geometry">
            <mxPoint x="692.5" y="568" as="sourcePoint" />
            <mxPoint x="394.5" y="568" as="targetPoint" />
          </mxGeometry>
        </mxCell>
        <mxCell id="6pZB10yQk9abNV-G5xyR-84" value="&lt;span style=&quot;font-family: &amp;quot;trebuchet ms&amp;quot;, verdana, arial, sans-serif; font-size: 16px; text-align: start;&quot;&gt;Return Filtered Dishes&lt;/span&gt;" style="html=1;verticalAlign=bottom;endArrow=open;dashed=1;endSize=8;curved=0;rounded=0;entryX=1.03;entryY=0.657;entryDx=0;entryDy=0;entryPerimeter=0;" edge="1" parent="1">
          <mxGeometry relative="1" as="geometry">
            <mxPoint x="390" y="612" as="sourcePoint" />
            <mxPoint x="206.5999999999999" y="613.6590000000001" as="targetPoint" />
          </mxGeometry>
        </mxCell>
        <mxCell id="6pZB10yQk9abNV-G5xyR-85" value="&lt;span style=&quot;font-family: &amp;quot;trebuchet ms&amp;quot;, verdana, arial, sans-serif; font-size: 16px; text-align: start;&quot;&gt;Click Delete on a Dish&lt;/span&gt;" style="html=1;verticalAlign=bottom;endArrow=block;curved=0;rounded=0;" edge="1" parent="1" target="6pZB10yQk9abNV-G5xyR-57">
          <mxGeometry width="80" relative="1" as="geometry">
            <mxPoint x="190" y="670" as="sourcePoint" />
            <mxPoint x="270" y="670" as="targetPoint" />
          </mxGeometry>
        </mxCell>
        <mxCell id="6pZB10yQk9abNV-G5xyR-86" value="&lt;span style=&quot;font-family: &amp;quot;trebuchet ms&amp;quot;, verdana, arial, sans-serif; font-size: 16px; text-align: start;&quot;&gt;DELETE /api/Merchant/dishDelete&lt;/span&gt;" style="html=1;verticalAlign=bottom;endArrow=block;curved=0;rounded=0;" edge="1" parent="1" target="6pZB10yQk9abNV-G5xyR-58">
          <mxGeometry width="80" relative="1" as="geometry">
            <mxPoint x="400" y="690" as="sourcePoint" />
            <mxPoint x="480" y="690" as="targetPoint" />
          </mxGeometry>
        </mxCell>
        <mxCell id="6pZB10yQk9abNV-G5xyR-88" value="" style="endArrow=none;dashed=1;html=1;dashPattern=1 3;strokeWidth=2;rounded=0;" edge="1" parent="1" target="6pZB10yQk9abNV-G5xyR-87">
          <mxGeometry width="50" height="50" relative="1" as="geometry">
            <mxPoint x="196" y="1210" as="sourcePoint" />
            <mxPoint x="196" y="190" as="targetPoint" />
          </mxGeometry>
        </mxCell>
        <mxCell id="6pZB10yQk9abNV-G5xyR-89" value="" style="html=1;whiteSpace=wrap;" vertex="1" parent="1">
          <mxGeometry x="907.5" y="740" width="7" height="200" as="geometry" />
        </mxCell>
        <mxCell id="6pZB10yQk9abNV-G5xyR-90" value="" style="html=1;whiteSpace=wrap;" vertex="1" parent="1">
          <mxGeometry x="390" y="830" width="10" height="630" as="geometry" />
        </mxCell>
        <mxCell id="6pZB10yQk9abNV-G5xyR-91" value="" style="html=1;whiteSpace=wrap;" vertex="1" parent="1">
          <mxGeometry x="680" y="830" width="10" height="600" as="geometry" />
        </mxCell>
        <mxCell id="6pZB10yQk9abNV-G5xyR-92" value="&lt;span style=&quot;font-family: &amp;quot;trebuchet ms&amp;quot;, verdana, arial, sans-serif; font-size: 16px; text-align: start;&quot;&gt;Delete Dish and Image&lt;/span&gt;" style="html=1;verticalAlign=bottom;endArrow=block;curved=0;rounded=0;" edge="1" parent="1" target="6pZB10yQk9abNV-G5xyR-59">
          <mxGeometry width="80" relative="1" as="geometry">
            <mxPoint x="690" y="770" as="sourcePoint" />
            <mxPoint x="770" y="770" as="targetPoint" />
          </mxGeometry>
        </mxCell>
        <mxCell id="6pZB10yQk9abNV-G5xyR-93" value="&lt;span style=&quot;font-family: &amp;quot;trebuchet ms&amp;quot;, verdana, arial, sans-serif; font-size: 16px; text-align: start;&quot;&gt;Confirm Deletion&lt;/span&gt;" style="html=1;verticalAlign=bottom;endArrow=open;dashed=1;endSize=8;curved=0;rounded=0;" edge="1" parent="1" target="6pZB10yQk9abNV-G5xyR-58">
          <mxGeometry relative="1" as="geometry">
            <mxPoint x="910" y="850" as="sourcePoint" />
            <mxPoint x="830" y="850" as="targetPoint" />
          </mxGeometry>
        </mxCell>
        <mxCell id="6pZB10yQk9abNV-G5xyR-94" value="&lt;span style=&quot;font-family: &amp;quot;trebuchet ms&amp;quot;, verdana, arial, sans-serif; font-size: 16px; text-align: start;&quot;&gt;Confirm Deletion Success&lt;/span&gt;" style="html=1;verticalAlign=bottom;endArrow=open;dashed=1;endSize=8;curved=0;rounded=0;" edge="1" parent="1" target="6pZB10yQk9abNV-G5xyR-57">
          <mxGeometry relative="1" as="geometry">
            <mxPoint x="680" y="870" as="sourcePoint" />
            <mxPoint x="600" y="870" as="targetPoint" />
          </mxGeometry>
        </mxCell>
        <mxCell id="6pZB10yQk9abNV-G5xyR-95" value="&lt;span style=&quot;font-family: &amp;quot;trebuchet ms&amp;quot;, verdana, arial, sans-serif; font-size: 16px; text-align: start;&quot;&gt;Upload Dish Image&lt;/span&gt;" style="html=1;verticalAlign=bottom;endArrow=block;curved=0;rounded=0;exitX=0.786;exitY=0.127;exitDx=0;exitDy=0;exitPerimeter=0;" edge="1" parent="1">
          <mxGeometry width="80" relative="1" as="geometry">
            <mxPoint x="200.0039999999999" y="910.31" as="sourcePoint" />
            <mxPoint x="394.5" y="910.31" as="targetPoint" />
          </mxGeometry>
        </mxCell>
        <mxCell id="6pZB10yQk9abNV-G5xyR-96" value="&lt;span style=&quot;font-family: &amp;quot;trebuchet ms&amp;quot;, verdana, arial, sans-serif; font-size: 16px; text-align: start;&quot;&gt;POST /api/Merchant/uploadImage&lt;/span&gt;" style="html=1;verticalAlign=bottom;endArrow=block;curved=0;rounded=0;entryX=0.743;entryY=0.331;entryDx=0;entryDy=0;entryPerimeter=0;" edge="1" parent="1">
          <mxGeometry width="80" relative="1" as="geometry">
            <mxPoint x="390" y="950" as="sourcePoint" />
            <mxPoint x="676.402" y="949.1600000000001" as="targetPoint" />
          </mxGeometry>
        </mxCell>
        <mxCell id="6pZB10yQk9abNV-G5xyR-97" value="&lt;span style=&quot;font-family: &amp;quot;trebuchet ms&amp;quot;, verdana, arial, sans-serif; font-size: 16px; text-align: start;&quot;&gt;Return Image URL&lt;/span&gt;" style="html=1;verticalAlign=bottom;endArrow=open;dashed=1;endSize=8;curved=0;rounded=0;" edge="1" parent="1" target="6pZB10yQk9abNV-G5xyR-57">
          <mxGeometry relative="1" as="geometry">
            <mxPoint x="680" y="1010" as="sourcePoint" />
            <mxPoint x="600" y="1010" as="targetPoint" />
          </mxGeometry>
        </mxCell>
        <mxCell id="6pZB10yQk9abNV-G5xyR-98" value="&lt;span style=&quot;font-family: &amp;quot;trebuchet ms&amp;quot;, verdana, arial, sans-serif; font-size: 16px; text-align: start;&quot;&gt;Submit Edited Dish&lt;/span&gt;" style="html=1;verticalAlign=bottom;endArrow=block;curved=0;rounded=0;" edge="1" parent="1" target="6pZB10yQk9abNV-G5xyR-57">
          <mxGeometry width="80" relative="1" as="geometry">
            <mxPoint x="200" y="1050" as="sourcePoint" />
            <mxPoint x="280" y="1050" as="targetPoint" />
          </mxGeometry>
        </mxCell>
        <mxCell id="6pZB10yQk9abNV-G5xyR-99" value="&lt;span style=&quot;font-family: &amp;quot;trebuchet ms&amp;quot;, verdana, arial, sans-serif; font-size: 16px; text-align: start;&quot;&gt;PUT /api/Merchant/dishEdit&lt;/span&gt;" style="html=1;verticalAlign=bottom;endArrow=block;curved=0;rounded=0;" edge="1" parent="1" target="6pZB10yQk9abNV-G5xyR-58">
          <mxGeometry width="80" relative="1" as="geometry">
            <mxPoint x="400" y="1080" as="sourcePoint" />
            <mxPoint x="480" y="1080" as="targetPoint" />
          </mxGeometry>
        </mxCell>
        <mxCell id="6pZB10yQk9abNV-G5xyR-100" value="&lt;span style=&quot;font-family: &amp;quot;trebuchet ms&amp;quot;, verdana, arial, sans-serif; font-size: 16px; text-align: start;&quot;&gt;Return Update Success&lt;/span&gt;" style="html=1;verticalAlign=bottom;endArrow=open;dashed=1;endSize=8;curved=0;rounded=0;" edge="1" parent="1" target="6pZB10yQk9abNV-G5xyR-57">
          <mxGeometry relative="1" as="geometry">
            <mxPoint x="680" y="1200" as="sourcePoint" />
            <mxPoint x="600" y="1200" as="targetPoint" />
          </mxGeometry>
        </mxCell>
        <mxCell id="6pZB10yQk9abNV-G5xyR-101" value="" style="html=1;whiteSpace=wrap;" vertex="1" parent="1">
          <mxGeometry x="910" y="1085" width="10" height="120" as="geometry" />
        </mxCell>
        <mxCell id="6pZB10yQk9abNV-G5xyR-102" value="&lt;span style=&quot;font-family: &amp;quot;trebuchet ms&amp;quot;, verdana, arial, sans-serif; font-size: 16px; text-align: start;&quot;&gt;Update Dish Details&lt;/span&gt;" style="html=1;verticalAlign=bottom;endArrow=block;curved=0;rounded=0;" edge="1" parent="1" target="6pZB10yQk9abNV-G5xyR-59">
          <mxGeometry width="80" relative="1" as="geometry">
            <mxPoint x="680" y="1110" as="sourcePoint" />
            <mxPoint x="760" y="1110" as="targetPoint" />
          </mxGeometry>
        </mxCell>
        <mxCell id="6pZB10yQk9abNV-G5xyR-103" value="&lt;span style=&quot;font-family: &amp;quot;trebuchet ms&amp;quot;, verdana, arial, sans-serif; font-size: 16px; text-align: start;&quot;&gt;Confirm Update Success&lt;/span&gt;" style="html=1;verticalAlign=bottom;endArrow=open;dashed=1;endSize=8;curved=0;rounded=0;" edge="1" parent="1" target="6pZB10yQk9abNV-G5xyR-58">
          <mxGeometry relative="1" as="geometry">
            <mxPoint x="910" y="1160" as="sourcePoint" />
            <mxPoint x="830" y="1160" as="targetPoint" />
          </mxGeometry>
        </mxCell>
        <mxCell id="6pZB10yQk9abNV-G5xyR-104" value="&lt;span style=&quot;font-family: &amp;quot;trebuchet ms&amp;quot;, verdana, arial, sans-serif; font-size: 16px; text-align: start;&quot;&gt;Start Creating a New Dish&lt;/span&gt;" style="html=1;verticalAlign=bottom;endArrow=block;curved=0;rounded=0;" edge="1" parent="1" target="6pZB10yQk9abNV-G5xyR-57">
          <mxGeometry width="80" relative="1" as="geometry">
            <mxPoint x="200" y="1230" as="sourcePoint" />
            <mxPoint x="280" y="1230" as="targetPoint" />
          </mxGeometry>
        </mxCell>
        <mxCell id="6pZB10yQk9abNV-G5xyR-105" value="&lt;span style=&quot;font-family: &amp;quot;trebuchet ms&amp;quot;, verdana, arial, sans-serif; font-size: 16px; text-align: start;&quot;&gt;POST /api/Merchant/createDish&lt;/span&gt;" style="html=1;verticalAlign=bottom;endArrow=block;curved=0;rounded=0;" edge="1" parent="1" target="6pZB10yQk9abNV-G5xyR-58">
          <mxGeometry width="80" relative="1" as="geometry">
            <mxPoint x="400" y="1270" as="sourcePoint" />
            <mxPoint x="480" y="1270" as="targetPoint" />
          </mxGeometry>
        </mxCell>
        <mxCell id="6pZB10yQk9abNV-G5xyR-106" value="&lt;span style=&quot;font-family: &amp;quot;trebuchet ms&amp;quot;, verdana, arial, sans-serif; font-size: 16px; text-align: start;&quot;&gt;Insert New Dish&lt;/span&gt;" style="html=1;verticalAlign=bottom;endArrow=block;curved=0;rounded=0;" edge="1" parent="1" target="6pZB10yQk9abNV-G5xyR-59">
          <mxGeometry width="80" relative="1" as="geometry">
            <mxPoint x="680" y="1300" as="sourcePoint" />
            <mxPoint x="760" y="1300" as="targetPoint" />
          </mxGeometry>
        </mxCell>
        <mxCell id="6pZB10yQk9abNV-G5xyR-108" value="&lt;span style=&quot;font-family: &amp;quot;trebuchet ms&amp;quot;, verdana, arial, sans-serif; font-size: 16px; text-align: start;&quot;&gt;Return New Dish ID&lt;/span&gt;" style="html=1;verticalAlign=bottom;endArrow=open;dashed=1;endSize=8;curved=0;rounded=0;entryX=1.143;entryY=0.868;entryDx=0;entryDy=0;entryPerimeter=0;" edge="1" parent="1" target="6pZB10yQk9abNV-G5xyR-91">
          <mxGeometry relative="1" as="geometry">
            <mxPoint x="910" y="1350" as="sourcePoint" />
            <mxPoint x="830" y="1350" as="targetPoint" />
          </mxGeometry>
        </mxCell>
        <mxCell id="6pZB10yQk9abNV-G5xyR-109" value="&lt;span style=&quot;font-family: &amp;quot;trebuchet ms&amp;quot;, verdana, arial, sans-serif; font-size: 16px; text-align: start;&quot;&gt;Confirm Creation Success&lt;/span&gt;" style="html=1;verticalAlign=bottom;endArrow=open;dashed=1;endSize=8;curved=0;rounded=0;" edge="1" parent="1" target="6pZB10yQk9abNV-G5xyR-57">
          <mxGeometry relative="1" as="geometry">
            <mxPoint x="680" y="1380" as="sourcePoint" />
            <mxPoint x="600" y="1380" as="targetPoint" />
          </mxGeometry>
        </mxCell>
        <mxCell id="6pZB10yQk9abNV-G5xyR-111" value="" style="html=1;points=[[0,0,0,0,5],[0,1,0,0,-5],[1,0,0,0,5],[1,1,0,0,-5]];perimeter=orthogonalPerimeter;outlineConnect=0;targetShapes=umlLifeline;portConstraint=eastwest;newEdgeStyle={&quot;curved&quot;:0,&quot;rounded&quot;:0};" vertex="1" parent="1">
          <mxGeometry x="190" y="230" width="10" height="550" as="geometry" />
        </mxCell>
        <mxCell id="6pZB10yQk9abNV-G5xyR-110" value="" style="endArrow=none;dashed=1;html=1;dashPattern=1 3;strokeWidth=2;rounded=0;" edge="1" parent="1" target="6pZB10yQk9abNV-G5xyR-111">
          <mxGeometry width="50" height="50" relative="1" as="geometry">
            <mxPoint x="196" y="1510" as="sourcePoint" />
            <mxPoint x="196" y="190" as="targetPoint" />
          </mxGeometry>
        </mxCell>
        <mxCell id="6pZB10yQk9abNV-G5xyR-87" value="" style="html=1;whiteSpace=wrap;" vertex="1" parent="1">
          <mxGeometry x="189" y="890" width="11" height="400" as="geometry" />
        </mxCell>
      </root>
    </mxGraphModel>
  </diagram>
</mxfile>
